<mxfile host="app.diagrams.net" modified="2022-06-03T08:25:33.398Z" agent="5.0 (Windows NT 10.0; Win64; x64) AppleWebKit/537.36 (KHTML, like Gecko) Chrome/102.0.5005.63 Safari/537.36" etag="e8b8v8s1joEC5ApTsAzZ" version="18.2.1" type="github">
  <diagram id="PEpKxM539Ny3untU5odz" name="Page-1">
    <mxGraphModel dx="1422" dy="762" grid="1" gridSize="10" guides="1" tooltips="1" connect="1" arrows="1" fold="1" page="1" pageScale="1" pageWidth="827" pageHeight="1169" math="0" shadow="0">
      <root>
        <mxCell id="0" />
        <mxCell id="1" parent="0" />
        <mxCell id="N_55csjl1Kdppv9eJYga-1" value="pool" style="rounded=0;whiteSpace=wrap;html=1;" vertex="1" parent="1">
          <mxGeometry x="130" y="110" width="90" height="30" as="geometry" />
        </mxCell>
        <mxCell id="N_55csjl1Kdppv9eJYga-4" value="" style="edgeStyle=orthogonalEdgeStyle;rounded=0;orthogonalLoop=1;jettySize=auto;html=1;" edge="1" parent="1" source="N_55csjl1Kdppv9eJYga-2" target="N_55csjl1Kdppv9eJYga-3">
          <mxGeometry relative="1" as="geometry" />
        </mxCell>
        <mxCell id="N_55csjl1Kdppv9eJYga-2" value="marshal" style="rounded=0;whiteSpace=wrap;html=1;" vertex="1" parent="1">
          <mxGeometry x="130" y="180" width="90" height="30" as="geometry" />
        </mxCell>
        <mxCell id="N_55csjl1Kdppv9eJYga-3" value="codec" style="rounded=0;whiteSpace=wrap;html=1;" vertex="1" parent="1">
          <mxGeometry x="300" y="180" width="90" height="30" as="geometry" />
        </mxCell>
        <mxCell id="N_55csjl1Kdppv9eJYga-5" value="marshal" style="rounded=0;whiteSpace=wrap;html=1;" vertex="1" parent="1">
          <mxGeometry x="130" y="250" width="90" height="30" as="geometry" />
        </mxCell>
      </root>
    </mxGraphModel>
  </diagram>
</mxfile>
